<svg xmlns="http://www.w3.org/2000/svg" viewBox="0 0 600 150" xmlns:bx="https://boxy-svg.com">
  <defs>
    <bx:export>
      <bx:file format="svg"></bx:file>
    </bx:export>
  </defs>
  <text style="fill: rgb(255, 255, 255); font-family: Arial, sans-serif; font-size: 36.4px; white-space: pre;" transform="matrix(0.75591, 0, 0, 0.961538, 20.833365, 11.646042)" x="127.256" y="109.054">Life Between Montenegro and Portugal</text>
  <text style="fill: rgb(255, 255, 255); font-family: Arial, sans-serif; font-size: 41px; white-space: pre;" x="120.036" y="56.708">Waves &amp; Mountains</text>
  <g transform="matrix(1, 0, 0, 1, 276.79282, -23.449414)">
    <g>
      <path d="M -157.24 94.384 L -187.29 84.823 L -177.63 61.646 C -177.34 60.919 -177.5 60.084 -178.03 59.52 C -178.59 58.956 -179.41 58.779 -180.15 59.055 L -203.59 68.071 L -212.94 38.68 C -213.21 37.865 -213.97 37.311 -214.81 37.311 C -215.69 37.311 -216.43 37.865 -216.69 38.68 L -226.04 68.071 L -249.47 59.055 C -250.22 58.776 -251.04 58.956 -251.59 59.52 C -252.15 60.083 -252.29 60.919 -252 61.646 L -242.34 84.823 L -272.4 94.384 C -273.2 94.643 -273.76 95.399 -273.76 96.256 C -273.76 97.113 -273.2 97.869 -272.4 98.128 L -242.34 107.69 L -252 130.867 C -252.29 131.594 -252.15 132.43 -251.59 132.993 C -251.22 133.383 -250.71 133.589 -250.19 133.589 C -249.94 133.589 -249.71 133.545 -249.47 133.459 L -226.04 124.445 L -216.69 153.835 C -216.43 154.648 -215.69 155.202 -214.81 155.202 C -213.97 155.202 -213.21 154.648 -212.94 153.832 L -203.59 124.442 L -180.15 133.457 C -179.93 133.545 -179.68 133.589 -179.44 133.589 C -178.94 133.589 -178.43 133.383 -178.03 132.993 C -177.5 132.43 -177.34 131.594 -177.63 130.867 L -187.29 107.69 L -157.24 98.129 C -156.43 97.869 -155.88 97.113 -155.88 96.256 C -155.88 95.399 -156.43 94.643 -157.24 94.384 Z M -242.65 73.883 C -243.06 72.892 -241.79 72.051 -241.03 72.812 L -233.38 80.466 C -232.87 80.988 -233.07 81.874 -233.78 82.098 L -237.72 83.351 C -238.21 83.506 -238.74 83.263 -238.93 82.793 L -242.65 73.883 Z M -228.09 121.022 L -237.93 124.801 C -238.91 125.185 -239.72 123.943 -238.97 123.192 L -230.59 114.822 C -230.07 114.302 -229.21 114.518 -228.97 115.22 L -227.51 119.807 C -227.34 120.302 -227.63 120.835 -228.09 121.022 Z M -221.25 99.899 L -228.69 107.354 C -228.94 107.613 -229.34 107.708 -229.69 107.595 L -253.1 100.139 C -254.19 99.799 -253.94 98.221 -252.82 98.221 L -221.94 98.221 C -221.06 98.221 -220.63 99.28 -221.25 99.899 Z M -216.78 89.142 C -216.78 90.016 -217.84 90.454 -218.46 89.835 L -225.91 82.381 C -226.18 82.121 -226.26 81.738 -226.16 81.389 L -218.69 57.962 C -218.37 56.892 -216.78 57.138 -216.78 58.26 L -216.78 89.142 Z M -201.53 71.491 L -191.71 67.711 C -190.71 67.328 -189.91 68.57 -190.66 69.32 L -199.03 77.691 C -199.54 78.211 -200.44 77.995 -200.66 77.294 L -202.12 72.705 C -202.28 72.21 -202.03 71.678 -201.53 71.491 Z M -203.49 111.124 L -210.94 134.551 C -211.28 135.62 -212.85 135.374 -212.85 134.252 L -212.85 103.371 C -212.85 102.496 -211.78 102.058 -211.18 102.678 L -203.72 110.132 C -203.47 110.391 -203.37 110.775 -203.49 111.124 Z M -186.99 118.63 C -186.59 119.62 -187.82 120.461 -188.59 119.701 L -196.25 112.046 C -196.78 111.525 -196.56 110.639 -195.84 110.415 L -191.9 109.162 C -191.43 109.006 -190.91 109.249 -190.71 109.719 L -186.99 118.63 Z M -176.81 94.292 L -207.69 94.292 C -208.57 94.292 -209.03 93.232 -208.41 92.614 L -200.96 85.159 C -200.68 84.899 -200.29 84.805 -199.96 84.917 L -176.51 92.371 C -175.44 92.714 -175.69 94.292 -176.81 94.292 Z" style="fill: rgb(255, 255, 255);"></path>
    </g>
  </g>
</svg>